<?xml version="1.0" encoding="utf-8"?>
<!-- Generator: Adobe Illustrator 24.0.1, SVG Export Plug-In . SVG Version: 6.00 Build 0)  -->
<svg version="1.1" id="Слой_1" xmlns="http://www.w3.org/2000/svg" xmlns:xlink="http://www.w3.org/1999/xlink" x="0px" y="0px"
	 viewBox="0 0 800 547.8" style="enable-background:new 0 0 800 547.8;" xml:space="preserve">
<style type="text/css">
	.st0{fill:#FFA000;}
	.st1{fill:#FFFFFF;}
	.st2{fill:#FFCA28;}
</style>
<path class="st0" d="M616.2,68.5H308.1l-57.2-57.2C243.7,4,233.9,0,223.8,0H68.5C30.8,0,0,30.8,0,68.5v411
	c0,37.7,30.6,68.3,68.3,68.3h548c37.7,0,68.3-30.6,68.3-68.3V136.9C684.7,99.3,653.9,68.5,616.2,68.5z"/>
<path class="st1" d="M682.5,36H134.7C97.1,36,62,68.9,56.8,109.1L9.5,474.6c-5.2,40.2,21.3,73.1,59,73.1h547.8
	c37.7,0,72.7-32.9,77.9-73.1l47.3-365.5C746.7,68.9,720.2,36,682.5,36L682.5,36z"/>
<path class="st2" d="M747.8,67.6H200.1c-37.7,0-76.9,30.9-87.3,68.6l-94,343c-10.3,37.7,12,68.6,49.7,68.6h547.8
	c37.7,0,76.9-30.9,87.3-68.6l94-343C807.8,98.4,785.5,67.6,747.8,67.6L747.8,67.6z"/>
</svg>
