<?xml version="1.0" encoding="utf-8"?>
<!-- Generator: Adobe Illustrator 24.0.1, SVG Export Plug-In . SVG Version: 6.00 Build 0)  -->
<svg version="1.1" id="Слой_1" xmlns="http://www.w3.org/2000/svg" xmlns:xlink="http://www.w3.org/1999/xlink" x="0px" y="0px"
	 viewBox="0 0 800 547.8" style="enable-background:new 0 0 800 547.8;" xml:space="preserve">
<style type="text/css">
	.st0{fill:#FFA000;}
	.st1{fill:#FFCA28;}
</style>
<path class="st0" d="M616.2,68.5H308.1l-57.2-57.2C243.7,4,233.9,0,223.8,0H68.5C30.8,0,0,30.8,0,68.5v136.9h684.7v-68.5
	C684.7,99.3,653.9,68.5,616.2,68.5z"/>
<path class="st1" d="M616.2,68.5H68.5C30.8,68.5,0,99.3,0,136.9v342.3c0,37.7,30.8,68.5,68.5,68.5h547.8c37.7,0,68.5-30.8,68.5-68.5
	V136.9C684.7,99.3,653.9,68.5,616.2,68.5L616.2,68.5z"/>
</svg>
